<svg xmlns="http://www.w3.org/2000/svg" width="127" height="69" viewBox="0 0 127 69">
  <metadata><?xpacket begin="﻿" id="W5M0MpCehiHzreSzNTczkc9d"?>
<x:xmpmeta xmlns:x="adobe:ns:meta/" x:xmptk="Adobe XMP Core 5.6-c138 79.159824, 2016/09/14-01:09:01        ">
   <rdf:RDF xmlns:rdf="http://www.w3.org/1999/02/22-rdf-syntax-ns#">
      <rdf:Description rdf:about=""/>
   </rdf:RDF>
</x:xmpmeta>
                                                                                                    
                                                                                                    
                                                                                                    
                                                                                                    
                                                                                                    
                                                                                                    
                                                                                                    
                                                                                                    
                                                                                                    
                                                                                                    
                                                                                                    
                                                                                                    
                                                                                                    
                                                                                                    
                                                                                                    
                                                                                                    
                                                                                                    
                                                                                                    
                                                                                                    
                                                                                                    
                           
<?xpacket end="w"?></metadata>
<defs>
    <style>
      .cls-1 {
        fill: #fff;
        fill-rule: evenodd;
      }
    </style>
  </defs>
  <path class="cls-1" d="M108.217,26.1A12.98,12.98,0,0,0,98.942,30V13.052H54.109a12.98,12.98,0,0,0-9.276,3.9V0H13.025A13.058,13.058,0,0,0,0,13.052V42.914H18.782a12.979,12.979,0,0,0,9.276-3.9V55.966H59.866a13.034,13.034,0,0,0,11.675-7.283,12.987,12.987,0,0,0,10.626,5.538V69h32.488A13.061,13.061,0,0,0,127,55.966V26.1H108.217Zm15.034,13.052H110.225a1.879,1.879,0,0,0-.017,3.757h13.043V55.966a9.292,9.292,0,0,1-9.276,9.295H85.916v-14.8h-3.75a9.292,9.292,0,0,1-9.276-9.295V26.1H56.117a1.879,1.879,0,0,0-.018,3.757H69.142V42.914a9.293,9.293,0,0,1-9.276,9.3H31.807V13.052H15.033a1.879,1.879,0,1,0,0,3.757H28.058v9.3H15.033a1.879,1.879,0,1,0,0,3.757H28.058a9.292,9.292,0,0,1-9.276,9.295H3.749v-26.1a9.292,9.292,0,0,1,9.276-9.295H41.083V42.914H57.876a1.879,1.879,0,0,0,0-3.757H44.833V26.1a9.292,9.292,0,0,1,9.276-9.3H82.167V41.169a1.875,1.875,0,1,0,3.75,0V16.809h9.276V55.966h16.793a1.879,1.879,0,0,0-.018-3.757H98.942V39.156a9.292,9.292,0,0,1,9.275-9.295h15.034v9.295Z"/>
</svg>
